<mxfile host="Electron" agent="Mozilla/5.0 (Windows NT 10.0; Win64; x64) AppleWebKit/537.36 (KHTML, like Gecko) draw.io/24.7.5 Chrome/126.0.6478.183 Electron/31.3.0 Safari/537.36" version="24.7.5">
  <diagram name="第 1 页" id="4tJsO4LAf2Q4mfXodabx">
    <mxGraphModel dx="1661" dy="788" grid="1" gridSize="10" guides="1" tooltips="1" connect="1" arrows="1" fold="1" page="1" pageScale="1" pageWidth="827" pageHeight="1169" math="0" shadow="0">
      <root>
        <mxCell id="0" />
        <mxCell id="1" parent="0" />
        <mxCell id="vyxF4VclRU6aeVnapkjQ-6" style="edgeStyle=orthogonalEdgeStyle;rounded=0;orthogonalLoop=1;jettySize=auto;html=1;exitX=1;exitY=0.3333333333333333;exitDx=0;exitDy=0;exitPerimeter=0;entryX=0.5;entryY=0;entryDx=0;entryDy=0;" edge="1" parent="1" source="vyxF4VclRU6aeVnapkjQ-1" target="vyxF4VclRU6aeVnapkjQ-3">
          <mxGeometry relative="1" as="geometry" />
        </mxCell>
        <mxCell id="vyxF4VclRU6aeVnapkjQ-1" value="Actor" style="shape=umlActor;verticalLabelPosition=bottom;verticalAlign=top;html=1;outlineConnect=0;" vertex="1" parent="1">
          <mxGeometry x="88" y="120" width="30" height="60" as="geometry" />
        </mxCell>
        <mxCell id="vyxF4VclRU6aeVnapkjQ-2" value="&lt;span style=&quot;font-weight: normal;&quot;&gt;Wrapper 分页&lt;/span&gt;" style="text;strokeColor=none;fillColor=none;html=1;fontSize=24;fontStyle=1;verticalAlign=middle;align=center;" vertex="1" parent="1">
          <mxGeometry x="100" y="40" width="100" height="40" as="geometry" />
        </mxCell>
        <mxCell id="vyxF4VclRU6aeVnapkjQ-7" style="edgeStyle=orthogonalEdgeStyle;rounded=0;orthogonalLoop=1;jettySize=auto;html=1;exitX=0.5;exitY=1;exitDx=0;exitDy=0;entryX=0.5;entryY=0;entryDx=0;entryDy=0;" edge="1" parent="1" source="vyxF4VclRU6aeVnapkjQ-3" target="vyxF4VclRU6aeVnapkjQ-4">
          <mxGeometry relative="1" as="geometry" />
        </mxCell>
        <mxCell id="vyxF4VclRU6aeVnapkjQ-3" value="创建 Page 对象&lt;div&gt;设置页码&lt;/div&gt;" style="rounded=1;whiteSpace=wrap;html=1;" vertex="1" parent="1">
          <mxGeometry x="88" y="230" width="110" height="50" as="geometry" />
        </mxCell>
        <mxCell id="vyxF4VclRU6aeVnapkjQ-8" style="edgeStyle=orthogonalEdgeStyle;rounded=0;orthogonalLoop=1;jettySize=auto;html=1;exitX=0.5;exitY=1;exitDx=0;exitDy=0;entryX=0.5;entryY=0;entryDx=0;entryDy=0;" edge="1" parent="1" source="vyxF4VclRU6aeVnapkjQ-4" target="vyxF4VclRU6aeVnapkjQ-5">
          <mxGeometry relative="1" as="geometry" />
        </mxCell>
        <mxCell id="vyxF4VclRU6aeVnapkjQ-4" value="传入Wrapepr 对象" style="rounded=1;whiteSpace=wrap;html=1;" vertex="1" parent="1">
          <mxGeometry x="88" y="320" width="110" height="50" as="geometry" />
        </mxCell>
        <mxCell id="vyxF4VclRU6aeVnapkjQ-5" value="得到分页结果" style="rounded=1;whiteSpace=wrap;html=1;" vertex="1" parent="1">
          <mxGeometry x="88" y="420" width="110" height="50" as="geometry" />
        </mxCell>
        <mxCell id="vyxF4VclRU6aeVnapkjQ-9" value="&lt;span style=&quot;font-weight: 400;&quot;&gt;自定义 SQL语句分页&lt;/span&gt;" style="text;strokeColor=none;fillColor=none;html=1;fontSize=24;fontStyle=1;verticalAlign=middle;align=center;" vertex="1" parent="1">
          <mxGeometry x="410" y="40" width="100" height="40" as="geometry" />
        </mxCell>
        <mxCell id="vyxF4VclRU6aeVnapkjQ-16" style="edgeStyle=orthogonalEdgeStyle;rounded=0;orthogonalLoop=1;jettySize=auto;html=1;exitX=1;exitY=0.3333333333333333;exitDx=0;exitDy=0;exitPerimeter=0;entryX=0.5;entryY=0;entryDx=0;entryDy=0;" edge="1" parent="1" source="vyxF4VclRU6aeVnapkjQ-10" target="vyxF4VclRU6aeVnapkjQ-12">
          <mxGeometry relative="1" as="geometry" />
        </mxCell>
        <mxCell id="vyxF4VclRU6aeVnapkjQ-10" value="Actor" style="shape=umlActor;verticalLabelPosition=bottom;verticalAlign=top;html=1;outlineConnect=0;" vertex="1" parent="1">
          <mxGeometry x="394" y="123" width="30" height="60" as="geometry" />
        </mxCell>
        <mxCell id="vyxF4VclRU6aeVnapkjQ-15" style="edgeStyle=orthogonalEdgeStyle;rounded=0;orthogonalLoop=1;jettySize=auto;html=1;exitX=0.5;exitY=1;exitDx=0;exitDy=0;" edge="1" parent="1" source="vyxF4VclRU6aeVnapkjQ-11" target="vyxF4VclRU6aeVnapkjQ-14">
          <mxGeometry relative="1" as="geometry" />
        </mxCell>
        <mxCell id="vyxF4VclRU6aeVnapkjQ-11" value="编写 SQL 语句" style="rounded=1;whiteSpace=wrap;html=1;" vertex="1" parent="1">
          <mxGeometry x="414" y="333" width="110" height="50" as="geometry" />
        </mxCell>
        <mxCell id="vyxF4VclRU6aeVnapkjQ-13" style="edgeStyle=orthogonalEdgeStyle;rounded=0;orthogonalLoop=1;jettySize=auto;html=1;exitX=0.5;exitY=1;exitDx=0;exitDy=0;entryX=0.5;entryY=0;entryDx=0;entryDy=0;" edge="1" parent="1" source="vyxF4VclRU6aeVnapkjQ-12" target="vyxF4VclRU6aeVnapkjQ-11">
          <mxGeometry relative="1" as="geometry" />
        </mxCell>
        <mxCell id="vyxF4VclRU6aeVnapkjQ-12" value="参数设置 IPage +&lt;div&gt;其它参数&lt;/div&gt;" style="rounded=1;whiteSpace=wrap;html=1;" vertex="1" parent="1">
          <mxGeometry x="414" y="233" width="110" height="50" as="geometry" />
        </mxCell>
        <mxCell id="vyxF4VclRU6aeVnapkjQ-14" value="得到分页结果" style="rounded=1;whiteSpace=wrap;html=1;" vertex="1" parent="1">
          <mxGeometry x="414" y="423" width="110" height="50" as="geometry" />
        </mxCell>
        <mxCell id="vyxF4VclRU6aeVnapkjQ-18" value="&lt;span style=&quot;font-weight: 400;&quot;&gt;MyBatis 分页&lt;/span&gt;" style="text;strokeColor=none;fillColor=none;html=1;fontSize=24;fontStyle=1;verticalAlign=middle;align=center;" vertex="1" parent="1">
          <mxGeometry x="666" y="37" width="102" height="40" as="geometry" />
        </mxCell>
        <mxCell id="vyxF4VclRU6aeVnapkjQ-19" style="edgeStyle=orthogonalEdgeStyle;rounded=0;orthogonalLoop=1;jettySize=auto;html=1;exitX=1;exitY=0.3333333333333333;exitDx=0;exitDy=0;exitPerimeter=0;entryX=0.5;entryY=0;entryDx=0;entryDy=0;" edge="1" parent="1" source="vyxF4VclRU6aeVnapkjQ-20" target="vyxF4VclRU6aeVnapkjQ-24">
          <mxGeometry relative="1" as="geometry" />
        </mxCell>
        <mxCell id="vyxF4VclRU6aeVnapkjQ-20" value="Actor" style="shape=umlActor;verticalLabelPosition=bottom;verticalAlign=top;html=1;outlineConnect=0;" vertex="1" parent="1">
          <mxGeometry x="650" y="120" width="32" height="60" as="geometry" />
        </mxCell>
        <mxCell id="vyxF4VclRU6aeVnapkjQ-21" style="edgeStyle=orthogonalEdgeStyle;rounded=0;orthogonalLoop=1;jettySize=auto;html=1;exitX=0.5;exitY=1;exitDx=0;exitDy=0;" edge="1" parent="1" source="vyxF4VclRU6aeVnapkjQ-22" target="vyxF4VclRU6aeVnapkjQ-25">
          <mxGeometry relative="1" as="geometry" />
        </mxCell>
        <mxCell id="vyxF4VclRU6aeVnapkjQ-22" value="编写 SQL 语句" style="rounded=1;whiteSpace=wrap;html=1;" vertex="1" parent="1">
          <mxGeometry x="655" y="320" width="112" height="50" as="geometry" />
        </mxCell>
        <mxCell id="vyxF4VclRU6aeVnapkjQ-23" style="edgeStyle=orthogonalEdgeStyle;rounded=0;orthogonalLoop=1;jettySize=auto;html=1;exitX=0.5;exitY=1;exitDx=0;exitDy=0;entryX=0.5;entryY=0;entryDx=0;entryDy=0;" edge="1" parent="1" source="vyxF4VclRU6aeVnapkjQ-24" target="vyxF4VclRU6aeVnapkjQ-22">
          <mxGeometry relative="1" as="geometry" />
        </mxCell>
        <mxCell id="vyxF4VclRU6aeVnapkjQ-24" value="&lt;div&gt;设置&lt;/div&gt;PageHelper,strartPage" style="rounded=1;whiteSpace=wrap;html=1;" vertex="1" parent="1">
          <mxGeometry x="640" y="230" width="142" height="50" as="geometry" />
        </mxCell>
        <mxCell id="vyxF4VclRU6aeVnapkjQ-27" style="edgeStyle=orthogonalEdgeStyle;rounded=0;orthogonalLoop=1;jettySize=auto;html=1;exitX=0.5;exitY=1;exitDx=0;exitDy=0;entryX=0.5;entryY=0;entryDx=0;entryDy=0;" edge="1" parent="1" source="vyxF4VclRU6aeVnapkjQ-25" target="vyxF4VclRU6aeVnapkjQ-26">
          <mxGeometry relative="1" as="geometry" />
        </mxCell>
        <mxCell id="vyxF4VclRU6aeVnapkjQ-25" value="得到查询结果" style="rounded=1;whiteSpace=wrap;html=1;" vertex="1" parent="1">
          <mxGeometry x="655" y="410" width="112" height="50" as="geometry" />
        </mxCell>
        <mxCell id="vyxF4VclRU6aeVnapkjQ-29" style="edgeStyle=orthogonalEdgeStyle;rounded=0;orthogonalLoop=1;jettySize=auto;html=1;exitX=0.5;exitY=1;exitDx=0;exitDy=0;entryX=0.5;entryY=0;entryDx=0;entryDy=0;" edge="1" parent="1" source="vyxF4VclRU6aeVnapkjQ-26" target="vyxF4VclRU6aeVnapkjQ-28">
          <mxGeometry relative="1" as="geometry" />
        </mxCell>
        <mxCell id="vyxF4VclRU6aeVnapkjQ-26" value="设置到 PageInfo 中" style="rounded=1;whiteSpace=wrap;html=1;" vertex="1" parent="1">
          <mxGeometry x="655" y="500" width="112" height="50" as="geometry" />
        </mxCell>
        <mxCell id="vyxF4VclRU6aeVnapkjQ-28" value="得到分页结果" style="rounded=1;whiteSpace=wrap;html=1;" vertex="1" parent="1">
          <mxGeometry x="656" y="590" width="112" height="50" as="geometry" />
        </mxCell>
      </root>
    </mxGraphModel>
  </diagram>
</mxfile>
